<svg width="800" height="600" xmlns="http://www.w3.org/2000/svg" stroke="null" style="vector-effect: non-scaling-stroke;">

 <g stroke="null">
  <title stroke="null">Layer 1</title>
  <g transform="rotate(89.8044 432.906 311.947)" stroke="null" id="svg_2">
   <path stroke="null" d="m801.83,205.26025c-78.85549,0 -157.71098,0 -236.82333,0c1.02743,-58.03977 2.05487,-116.35992 3.33916,-174.39969c0,-1.12154 -5.65088,-0.28039 -5.65088,1.68231c-1.28429,57.479 -2.31172,115.23838 -3.33916,172.71738c-81.42407,0 -163.10501,0 -244.52908,0c0,-61.68478 0,-123.64994 -0.25686,-185.33472c0,-1.40193 -5.13717,-0.56077 -5.13717,1.40193c0,61.40439 0,122.5284 0.25686,183.93279c-26.4564,0 -53.16966,0 -79.62607,0c-53.94024,0 -107.62362,0 -161.56386,0c-3.85287,0 -12.07234,6.16848 -4.62345,6.16848c81.93779,0 163.87558,0 245.81337,0c0,65.61017 0,131.22035 0.25686,196.55013c-25.68583,0.56077 -51.37166,0.84116 -77.05748,1.40193c-53.42652,1.12154 -107.1099,2.80385 -160.53642,4.48617c-4.10973,0.28039 -15.4115,7.29002 -5.90774,7.00963c81.16722,-2.80385 162.33443,-4.76655 243.50165,-6.16848c0,63.0867 0,126.17341 0.25686,189.26011c0,1.40193 5.13717,0.56077 5.13717,-1.40193c0,-62.52593 0,-125.33225 -0.25686,-187.85819c80.39664,-1.40193 160.79328,-1.9627 240.93306,-1.9627c-0.77057,63.0867 -1.54115,126.17341 -2.05487,189.26011c0,1.12154 5.65088,0.28039 5.65088,-1.68231c0.51372,-62.52593 1.28429,-125.05187 2.05487,-187.5778c20.03495,0 40.32675,0 60.36169,0.28039c53.94024,0.28039 107.62362,0.84116 161.56386,1.9627c3.33916,0 16.18207,-6.72925 8.99004,-7.00963c-77.05748,-1.40193 -154.11497,-1.9627 -230.91559,-1.9627c0.77057,-64.76902 1.79801,-129.81842 3.0823,-194.58744c23.63096,0 47.26192,0 70.63603,0c53.94024,0 107.62362,0 161.56386,0c4.10973,0.28039 12.58606,-6.16848 4.88031,-6.16848zm-245.29965,201.0363c-80.39664,0 -160.79328,0.56077 -241.18992,1.9627c0,-65.61017 0,-130.93996 -0.25686,-196.55013c81.42407,0 162.84815,0 244.27222,0c-1.02743,64.76902 -2.05487,129.81842 -2.82544,194.58744z"/>
  </g>
  <g transform="rotate(89.8044 417.401 328.386)" stroke="null">
   <g stroke="null">
    <path stroke="null" fill="#2074BB" d="m414.19021,-5.83374c0.25686,222.90636 0.51372,446.0931 0.77057,668.99946c0,2.80385 5.65088,1.68231 5.65088,-0.56077c-0.25686,-222.90636 -0.51372,-446.0931 -0.77057,-668.99946c0,-2.80385 -5.65088,-1.68231 -5.65088,0.56077l0,0z" class="st13"/>
   </g>
  </g>
  <g transform="rotate(89.8044 423.745 309.39)" stroke="null">
   <path stroke="#1F74BB" stroke-miterlimit="10" stroke-width="1.0631" fill="#1F74BB" d="m488.82451,328.41581c-7.44889,29.16008 -32.36414,47.38513 -57.79311,49.62821c-26.97012,2.24308 -54.1971,-13.17811 -66.78315,-40.37549c-12.58606,-26.63661 -7.70575,-59.16131 13.61349,-79.06867c20.80552,-19.62697 50.08736,-22.43083 73.97518,-10.65464c26.19954,13.17811 44.9502,46.54397 36.98759,80.4706c-1.02743,4.48617 1.79801,5.32732 2.82544,0.84116c7.44889,-31.68355 -3.85287,-63.92786 -27.22698,-81.87252c-24.14468,-18.22505 -57.2794,-19.34659 -82.19465,0c-22.86039,17.94466 -33.64843,51.31052 -26.4564,81.31175c7.70575,32.5247 34.93273,54.67514 63.95771,56.63784c32.10728,2.24308 62.41656,-20.18775 71.66346,-56.07707c1.28429,-4.48617 -1.54115,-5.32732 -2.56858,-0.84116z" class="st14"/>
  </g>
  <g transform="rotate(89.8044 197.878 326.584)" stroke="null">
   <path stroke="#1F74BB" stroke-miterlimit="10" stroke-width="1.0666" fill="#1F74BB" d="m261.17586,306.14171c6.93517,26.35622 -4.88031,56.07707 -26.71326,72.33942c-21.31924,15.70158 -50.08736,17.66428 -72.17718,4.48617c-24.40154,-14.58004 -35.44644,-44.0205 -26.19954,-72.33942c8.21946,-25.51507 30.56613,-44.58127 56.25196,-48.22628c30.05242,-4.20578 60.36169,14.01927 68.83802,43.74012c1.02743,3.92539 2.56858,3.36462 1.54115,-0.56077c-7.96261,-27.75815 -29.79556,-48.50667 -58.56369,-50.46936c-29.5387,-2.24308 -58.30683,17.38389 -69.09488,46.26358c-9.76061,26.07584 -3.33916,57.479 14.89778,76.82559c20.2918,21.58967 53.16966,26.35622 79.62607,11.21541c29.28184,-16.82312 41.35418,-52.15168 33.13472,-83.83522c-1.02743,-3.64501 -2.56858,-3.36462 -1.54115,0.56077z" class="st15"/>
  </g>
  <g transform="rotate(89.8044 637.612 304.778)" stroke="null">
   <path stroke="#1F74BB" stroke-miterlimit="10" stroke-width="0.9149" fill="#1F74BB" d="m610.25227,245.24393c11.55862,-7.00963 24.40154,-9.81349 37.24445,-7.00963c12.07234,2.52347 23.3741,9.5331 31.85043,19.0662c16.95265,19.34659 22.08981,48.50667 12.84291,73.46096c-9.50376,25.79545 -34.41901,44.86166 -60.10484,41.21665c-24.91525,-3.36462 -45.72077,-24.67391 -51.37166,-51.31052c-6.42146,-29.72085 6.1646,-60.56324 30.05242,-75.70405c0.77057,-0.56077 -2.05487,-0.84116 -2.31172,-0.84116c-1.28429,0 -2.82544,0 -3.85287,0.56077c-24.14468,15.14081 -36.98759,45.9832 -30.82299,75.70405c6.1646,28.87969 28.76813,49.90859 55.48139,53.27322c26.19954,3.08424 52.9128,-9.81349 66.01258,-35.60894c13.35663,-26.35622 8.99004,-60.28285 -10.27433,-81.87252c-20.80552,-22.9916 -54.96767,-26.91699 -80.39664,-11.4958c-1.28429,0.84116 4.36659,1.40193 5.65088,0.56077z" class="st16"/>
  </g>
 </g>
</svg>